<?xml version="1.0" standalone="no"?>
<!DOCTYPE svg PUBLIC "-//W3C//DTD SVG 20010904//EN"
 "http://www.w3.org/TR/2001/REC-SVG-20010904/DTD/svg10.dtd">
<svg version="1.0" xmlns="http://www.w3.org/2000/svg"
 width="1696.000000pt" height="1696.000000pt" viewBox="0 0 1696.000000 1696.000000"
 preserveAspectRatio="xMidYMid meet">
<metadata>
Created by potrace 1.14, written by Peter Selinger 2001-2017
</metadata>
<g transform="translate(0.000000,1696.000000) scale(0.100000,-0.100000)"
fill="#000000" stroke="none">
<path d="M6919 11026 c-2 -2 -60 -7 -129 -11 -69 -3 -145 -8 -170 -10 -57 -5
-168 -16 -200 -20 -83 -10 -147 -18 -160 -20 -8 -1 -35 -6 -60 -10 -25 -4 -54
-9 -65 -11 -11 -2 -33 -6 -50 -9 -16 -3 -43 -8 -60 -12 -16 -4 -34 -6 -38 -5
-4 1 -16 -2 -25 -7 -9 -5 -35 -12 -56 -15 -22 -4 -65 -14 -95 -23 -31 -9 -58
-18 -61 -18 -110 -29 -330 -120 -350 -145 -3 -3 -79 -43 -170 -89 -91 -46
-171 -88 -177 -93 -7 -6 -13 -7 -13 -2 0 5 -4 5 -8 -1 -4 -5 -108 -61 -232
-124 -124 -62 -324 -164 -445 -226 -301 -154 -404 -205 -412 -206 -5 0 -13 -4
-18 -9 -6 -5 -114 -61 -240 -125 -127 -65 -249 -128 -272 -141 -24 -14 -43
-22 -43 -18 0 3 -6 2 -12 -4 -7 -5 -83 -46 -168 -90 -312 -159 -919 -468
-1047 -531 -73 -36 -132 -69 -133 -73 0 -5 357 -8 793 -8 l792 0 36 33 c85 76
110 97 214 181 61 48 119 95 130 104 11 9 58 45 105 80 47 34 92 68 100 75 8
7 51 37 95 67 44 30 82 57 85 60 15 15 100 70 108 70 6 0 12 4 14 8 5 12 192
133 343 221 155 91 195 114 315 177 69 36 132 69 140 74 46 29 331 160 346
160 8 0 14 4 14 9 0 5 10 11 23 14 12 3 78 28 147 57 155 63 445 161 545 185
6 1 17 5 25 8 13 5 82 21 131 31 8 2 21 6 29 9 8 3 56 13 105 22 50 9 108 20
130 25 22 5 63 12 90 15 28 3 61 8 75 10 118 22 277 30 620 29 434 -1 747 -12
1110 -40 30 -2 89 -7 130 -10 131 -9 281 -23 320 -29 14 -3 50 -6 81 -9 54 -5
129 -14 179 -21 14 -2 51 -7 83 -10 32 -4 68 -8 80 -11 11 -2 39 -6 62 -9 22
-3 51 -8 65 -10 56 -10 97 -16 132 -20 21 -2 41 -6 45 -8 5 -3 31 -8 58 -11
28 -4 106 -18 175 -32 69 -14 133 -27 143 -29 10 -2 111 -26 225 -54 285 -69
479 -115 533 -126 8 -2 44 -10 80 -19 35 -9 74 -18 87 -21 13 -2 33 -7 44 -11
11 -3 30 -8 41 -9 12 -2 81 -18 152 -35 72 -17 139 -33 150 -35 66 -15 127
-30 175 -42 30 -8 66 -16 80 -19 13 -3 60 -14 105 -24 99 -23 122 -28 160 -36
17 -3 37 -8 45 -11 8 -3 24 -8 34 -10 11 -2 78 -17 150 -34 72 -17 142 -33
155 -35 14 -3 28 -7 31 -9 4 -2 22 -7 41 -10 19 -3 52 -11 74 -16 22 -6 59
-14 82 -19 23 -5 70 -16 103 -25 33 -9 80 -20 103 -24 23 -5 130 -30 237 -56
107 -25 204 -48 215 -50 17 -3 104 -24 165 -40 8 -2 47 -11 85 -19 39 -9 106
-24 150 -35 44 -10 151 -35 237 -55 87 -20 168 -39 180 -42 56 -13 105 -25
128 -30 14 -3 50 -11 80 -19 30 -7 75 -16 100 -20 25 -4 54 -9 65 -11 20 -4
166 -27 240 -39 96 -14 174 -25 230 -30 33 -4 71 -9 85 -11 67 -14 369 -26
385 -16 5 4 16 7 23 8 70 11 242 152 307 252 26 39 32 43 64 41 142 -10 190
-188 136 -499 -9 -56 -13 -112 -9 -135 17 -101 86 -221 198 -340 36 -38 87
-101 113 -140 27 -38 51 -71 56 -73 4 -2 7 -8 7 -14 0 -5 10 -24 22 -41 13
-18 23 -34 22 -37 0 -3 10 -30 24 -60 27 -61 39 -90 42 -105 1 -5 6 -18 11
-27 14 -25 55 -191 69 -278 20 -120 16 -406 -6 -442 -3 -5 -7 -21 -10 -36 -7
-38 -51 -156 -84 -222 -45 -89 -136 -209 -223 -295 -77 -75 -199 -171 -227
-177 -9 -2 -13 26 -16 107 -5 160 -13 247 -34 365 -6 36 -13 76 -14 90 -2 14
-5 32 -8 40 -3 8 -15 58 -28 110 -25 107 -60 216 -97 303 -16 40 -21 63 -14
71 10 11 12 21 26 101 4 22 9 47 11 55 3 12 -8 15 -59 15 -84 -1 -89 1 -114
45 -26 44 -124 168 -177 222 -31 32 -35 42 -33 79 l2 43 -50 0 c-27 0 -52 3
-55 6 -27 34 -232 180 -355 252 -95 56 -363 188 -385 189 -3 1 -20 7 -38 15
-39 16 -270 94 -294 99 -9 2 -51 13 -94 25 -42 12 -86 24 -98 26 -12 2 -32 6
-46 9 -123 27 -222 41 -226 31 -2 -6 3 -58 11 -116 9 -58 18 -130 20 -160 6
-68 12 -87 28 -87 36 0 210 -15 220 -18 7 -2 29 -6 49 -9 209 -31 570 -177
763 -310 87 -60 104 -74 213 -178 l62 -59 -6 -47 c-3 -26 -10 -50 -16 -53 -5
-3 -45 -5 -89 -4 -47 1 -83 -2 -88 -9 -5 -6 -14 -36 -20 -66 -6 -30 -12 -65
-15 -77 -5 -23 -3 -23 90 -23 l95 0 -4 -27 c-3 -16 -8 -39 -11 -53 -3 -14 -8
-36 -10 -50 -2 -14 -16 -86 -31 -160 -14 -74 -28 -146 -30 -160 -2 -14 -5 -25
-6 -25 -1 0 -3 -9 -5 -20 -1 -11 -5 -30 -8 -42 -2 -11 -8 -43 -12 -70 -3 -26
-9 -52 -12 -58 -3 -5 -7 -23 -9 -40 -4 -34 -11 -70 -13 -70 -1 0 -3 -38 -4
-85 -3 -103 15 -166 62 -220 46 -55 138 -97 232 -106 60 -6 245 -9 306 -5 7 1
15 21 18 44 4 24 9 57 13 73 15 73 23 69 -132 70 -226 2 -269 24 -272 144 -1
37 7 108 17 156 10 49 21 105 24 124 3 19 8 44 10 55 2 11 14 70 26 130 12 61
23 119 26 130 2 11 7 36 10 55 3 19 7 43 10 52 7 25 14 59 19 102 7 49 11 56
35 56 59 0 200 -352 226 -565 2 -22 7 -46 10 -54 18 -51 25 -451 11 -586 -5
-38 -10 -90 -13 -115 -2 -24 -7 -56 -9 -70 -17 -83 -17 -97 2 -97 21 -1 208
33 208 37 0 1 7 3 15 5 66 13 225 64 290 92 416 181 634 377 768 693 26 63 61
179 69 230 3 19 8 54 12 77 14 71 11 269 -5 365 -20 129 -17 115 -58 253 -2 6
-6 19 -11 30 -4 11 -12 34 -19 50 -21 57 -122 250 -157 300 -101 147 -151 206
-316 379 -57 60 -113 127 -124 149 -22 43 -31 122 -17 150 5 10 5 17 0 17 -5
0 -6 17 -3 38 8 41 6 131 -3 207 -11 99 -70 244 -137 341 -70 102 -208 207
-287 219 -45 6 -58 -4 -67 -55 -13 -79 -18 -98 -47 -157 -33 -71 -82 -124
-142 -156 -36 -19 -57 -22 -166 -22 -130 0 -240 10 -355 30 -22 4 -49 9 -60
10 -74 13 -158 32 -294 66 -86 22 -165 42 -176 44 -11 3 -110 28 -220 56 -110
28 -209 53 -221 55 -11 2 -65 15 -120 29 -54 15 -106 28 -114 30 -8 2 -62 15
-120 30 -58 14 -116 28 -130 31 -14 3 -34 8 -45 11 -11 4 -24 8 -30 9 -5 1
-39 10 -75 19 -36 9 -76 18 -90 21 -14 2 -32 7 -40 10 -8 3 -26 8 -38 10 -13
3 -49 12 -80 20 -32 8 -66 17 -77 19 -11 3 -83 21 -160 40 -77 20 -149 38
-161 40 -11 3 -65 16 -120 30 -54 15 -106 28 -114 30 -8 2 -53 13 -100 24 -47
12 -94 23 -105 26 -11 2 -81 20 -155 39 -74 19 -146 37 -160 40 -14 3 -59 14
-100 26 -41 11 -86 22 -100 25 -14 2 -88 21 -165 40 -77 20 -149 38 -161 40
-11 3 -65 16 -120 30 -54 15 -106 28 -114 30 -8 1 -80 20 -160 40 -80 20 -153
38 -163 40 -10 2 -32 9 -50 14 -33 11 -193 48 -237 55 -14 2 -61 12 -105 21
-94 20 -85 18 -200 40 -49 9 -99 18 -110 20 -52 8 -101 17 -115 20 -8 2 -37 7
-65 11 -27 3 -59 8 -70 10 -11 3 -67 11 -125 20 -58 8 -116 17 -130 19 -14 2
-45 7 -70 10 -25 3 -58 7 -75 9 -16 3 -57 8 -90 12 -33 3 -69 8 -80 10 -11 3
-45 7 -75 10 -82 9 -100 11 -155 18 -27 4 -72 9 -100 11 -51 4 -117 11 -190
19 -22 3 -71 8 -110 11 -38 3 -95 8 -125 11 -63 7 -123 12 -230 19 -120 9
-190 14 -270 20 -41 3 -111 8 -155 10 -44 3 -118 7 -165 11 -93 7 -925 15
-931 10z"/>
<path d="M5617 8474 c-1 -1 -42 -4 -92 -7 -102 -7 -135 -12 -220 -34 -131 -35
-303 -138 -396 -238 -24 -26 -49 -53 -54 -59 -6 -6 -24 -29 -40 -51 -17 -22
-32 -42 -35 -45 -4 -3 -17 -23 -31 -45 -48 -78 -43 -70 -97 -185 -32 -66 -63
-167 -88 -285 -23 -107 -23 -314 0 -424 34 -157 137 -313 262 -396 55 -36 149
-80 195 -89 13 -3 35 -8 49 -11 86 -21 323 -27 410 -11 14 3 39 7 55 10 17 2
59 12 95 21 36 9 70 18 75 19 29 6 144 48 159 59 15 11 21 27 31 82 5 23 11
57 29 143 10 49 10 62 0 62 -7 0 -14 -4 -16 -8 -8 -20 -225 -135 -277 -148 -9
-2 -41 -10 -71 -19 -110 -32 -325 -40 -416 -15 -104 27 -244 117 -244 156 0 8
-4 14 -9 14 -8 0 -53 93 -65 135 -24 85 -25 340 -2 405 3 8 7 26 10 40 18 105
122 339 189 425 42 54 103 121 138 150 74 60 195 118 276 131 20 3 45 8 57 10
37 8 181 4 235 -6 121 -23 211 -66 319 -153 41 -32 76 -56 79 -54 2 3 7 18 9
34 3 15 13 69 23 118 l18 90 -21 17 c-58 48 -237 124 -338 143 -39 8 -197 23
-201 19z"/>
<path d="M275 8450 l-30 -5 0 -905 0 -905 120 0 120 0 0 792 c0 435 2 789 5
786 3 -2 5 -8 6 -11 0 -4 8 -24 17 -46 9 -21 17 -41 17 -45 0 -5 61 -168 85
-226 5 -11 9 -22 9 -25 1 -3 6 -18 13 -35 18 -48 26 -69 29 -80 3 -11 71 -190
81 -215 4 -8 7 -17 8 -20 1 -3 5 -12 8 -20 3 -8 27 -71 52 -140 26 -69 49
-132 52 -140 4 -8 7 -17 8 -20 1 -3 7 -18 14 -35 6 -16 24 -63 39 -103 l27
-73 124 3 125 3 38 100 c21 55 46 123 57 150 65 177 183 493 191 510 5 11 22
56 38 100 16 44 33 89 37 100 4 11 9 25 10 30 3 9 29 78 50 130 4 11 9 25 11
30 5 23 33 79 34 70 1 -5 1 -362 1 -792 l1 -783 119 0 c88 0 119 3 120 13 3
35 4 1784 1 1797 -3 13 -31 15 -185 14 l-182 0 -20 -56 c-11 -31 -24 -60 -28
-64 -4 -4 -7 -14 -7 -22 0 -8 -6 -28 -14 -45 -12 -27 -84 -216 -171 -453 -13
-34 -28 -70 -33 -80 -6 -11 -10 -22 -10 -27 -1 -10 -40 -115 -57 -154 -8 -17
-15 -35 -15 -40 0 -5 -18 -54 -40 -108 -22 -54 -40 -102 -40 -105 0 -4 -7 -25
-16 -46 l-16 -39 -15 40 c-8 22 -19 49 -24 60 -4 11 -56 148 -114 305 -58 157
-112 301 -120 320 -8 19 -53 141 -101 270 -48 129 -89 237 -90 239 -5 6 -305
7 -339 1z"/>
<path d="M6808 8014 c-2 -1 -30 -6 -63 -9 -33 -4 -63 -9 -66 -11 -3 -2 -19 -6
-35 -8 -62 -12 -214 -61 -214 -69 0 -3 -5 -29 -10 -58 -6 -30 -13 -67 -16 -83
-3 -16 -7 -33 -10 -37 -9 -15 16 -20 38 -7 13 6 30 13 38 14 8 2 23 7 35 13
118 58 374 85 495 52 65 -18 122 -54 156 -98 26 -34 29 -47 31 -113 2 -126 14
-119 -194 -118 -161 0 -291 -7 -347 -18 -12 -2 -36 -7 -54 -10 -19 -3 -54 -14
-78 -24 -24 -11 -44 -17 -44 -15 0 5 -40 -17 -110 -58 -68 -39 -173 -164 -186
-219 -1 -5 -2 -9 -4 -10 -2 -3 -5 -18 -16 -63 -15 -66 -8 -182 15 -242 24 -65
94 -153 141 -177 17 -9 42 -22 58 -30 54 -29 201 -42 287 -25 69 13 185 52
185 61 0 5 5 8 11 8 17 0 100 61 147 107 23 24 44 43 46 43 2 0 0 -17 -4 -37
-5 -21 -11 -49 -13 -63 -3 -14 -8 -41 -12 -60 l-6 -35 106 1 c59 1 110 6 115
10 5 5 11 26 14 46 3 21 10 57 15 80 5 24 12 61 15 83 4 22 8 47 11 55 5 18
14 64 21 105 2 17 9 50 15 75 5 25 12 56 14 70 3 14 7 36 10 50 2 14 7 39 10
55 6 35 9 51 25 119 24 106 33 300 17 366 -22 89 -100 186 -184 228 -37 19
-103 40 -153 49 -28 5 -248 11 -252 7z m326 -749 c-3 -22 -8 -43 -10 -47 -3
-4 -7 -18 -9 -30 -16 -80 -88 -209 -153 -274 -94 -92 -195 -136 -322 -137
-169 -2 -259 75 -262 225 -1 75 19 126 72 179 69 69 162 102 320 115 41 4 76
7 77 8 1 1 67 1 148 1 l145 0 -6 -40z"/>
<path d="M8112 8004 c-110 -23 -200 -72 -289 -160 -35 -34 -63 -58 -63 -54 0
3 9 46 19 95 11 49 18 91 15 94 -6 7 -202 8 -213 2 -5 -3 -11 -19 -14 -36 -3
-16 -8 -41 -12 -55 -3 -14 -8 -41 -11 -60 -4 -19 -7 -39 -9 -45 -2 -11 -12
-62 -20 -107 -6 -35 -12 -65 -30 -153 -8 -38 -16 -81 -19 -95 -2 -14 -16 -83
-30 -155 -30 -153 -34 -176 -41 -212 -3 -16 -8 -39 -11 -53 -3 -14 -8 -34 -10
-45 -4 -28 -12 -66 -18 -91 -2 -12 -7 -38 -10 -58 -3 -20 -10 -55 -15 -78 -6
-23 -8 -46 -5 -50 3 -4 2 -8 -3 -8 -13 0 -13 -60 0 -61 18 -1 168 -1 194 0 13
1 22 4 21 9 -2 9 17 118 21 125 2 1 4 13 6 27 2 14 17 93 34 175 35 174 34
168 60 305 34 172 70 265 140 360 65 89 186 170 277 187 53 9 175 6 186 -5 6
-6 4 -15 -5 -23 -37 -37 -153 -236 -163 -279 0 -3 -3 -12 -7 -20 -37 -97 -59
-216 -59 -329 -1 -121 6 -174 31 -246 34 -96 75 -151 168 -225 20 -17 106 -47
153 -55 63 -11 160 -8 228 5 58 12 211 78 236 102 8 7 24 21 37 32 13 10 36
30 51 43 l26 25 -10 -43 c-5 -24 -12 -55 -14 -69 -35 -194 -196 -379 -361
-416 -164 -36 -319 -22 -462 43 -41 18 -76 32 -77 30 -6 -6 -36 -151 -37 -181
-2 -27 2 -31 51 -48 29 -10 69 -21 90 -24 20 -3 40 -8 43 -9 7 -5 174 -19 219
-18 68 0 177 13 236 28 136 35 284 134 368 248 60 82 138 277 162 407 2 14 11
59 19 100 29 143 47 240 51 265 1 11 3 20 4 20 2 0 8 27 15 70 3 17 14 77 25
135 12 58 23 116 26 130 2 14 7 36 10 50 4 14 8 36 10 50 2 14 5 34 8 46 8 32
19 97 20 117 0 9 3 17 6 17 3 0 6 8 6 18 1 9 4 31 7 47 16 82 24 136 18 138
-6 3 -181 1 -208 -2 -6 0 -16 -32 -23 -70 -6 -38 -13 -78 -15 -88 -2 -10 -4
-25 -4 -33 -1 -8 -14 5 -30 30 -41 64 -79 102 -138 138 -29 18 -53 29 -53 27
0 -3 -10 -1 -21 6 -61 32 -235 32 -334 -1 -69 -23 -170 -73 -181 -91 -3 -5
-12 -9 -20 -9 -8 0 -13 4 -9 9 3 5 9 30 14 55 8 43 7 45 -18 51 -49 13 -176
12 -239 -1z m752 -189 c86 -30 147 -92 173 -174 19 -59 25 -259 11 -331 -4
-19 -10 -44 -12 -55 -15 -72 -60 -173 -106 -240 -32 -46 -118 -135 -130 -135
-5 0 -15 -6 -22 -13 -7 -7 -32 -21 -56 -30 -138 -55 -293 -34 -378 52 -33 33
-68 109 -80 176 -16 90 1 251 38 358 74 218 204 359 365 396 52 12 160 10 197
-4z"/>
<path d="M10247 8004 c-175 -33 -298 -109 -428 -264 -40 -47 -103 -145 -104
-160 -1 -3 -6 -15 -13 -28 -13 -22 -50 -130 -57 -165 -2 -9 -6 -20 -8 -25 -11
-18 -22 -136 -21 -237 0 -76 6 -133 19 -180 49 -184 190 -318 370 -353 42 -8
222 -7 270 1 53 10 131 35 178 59 l37 18 0 -27 0 -28 104 1 c57 1 108 4 114 8
5 3 10 16 10 28 0 13 5 41 11 63 5 22 13 57 17 79 3 21 8 48 10 60 3 11 8 37
11 56 3 19 18 63 34 97 36 77 77 199 84 249 3 22 8 46 11 54 3 8 8 65 11 125
5 105 7 112 41 165 39 60 109 131 150 154 102 55 123 61 247 61 91 0 104 -3
140 -26 100 -65 118 -132 85 -312 -18 -102 -22 -119 -41 -212 -5 -27 -12 -66
-15 -85 -3 -19 -9 -51 -14 -70 -5 -19 -11 -51 -14 -70 -3 -19 -8 -46 -11 -60
-3 -14 -9 -47 -15 -75 -5 -27 -12 -61 -15 -75 -15 -71 -35 -184 -35 -199 0
-14 13 -16 100 -15 114 2 129 6 128 31 0 10 5 43 12 73 12 60 18 86 25 127 2
15 9 49 14 77 6 28 13 62 15 76 3 14 16 84 31 155 14 72 28 146 31 165 3 19 7
43 10 52 7 25 13 58 20 108 3 25 7 56 10 70 2 14 4 59 4 100 1 241 -149 376
-406 365 -46 -2 -87 -6 -92 -9 -5 -3 -24 -8 -42 -11 -31 -6 -152 -59 -195 -87
-11 -7 -47 -39 -80 -70 -60 -57 -74 -64 -60 -31 4 10 9 25 10 33 1 8 6 29 9
45 4 17 10 46 13 65 l5 35 -111 0 -111 1 -7 -38 c-3 -21 -7 -38 -9 -38 -2 0
-24 13 -50 30 -43 27 -106 53 -165 66 -49 12 -206 10 -272 -2z m219 -187 c66
-16 135 -70 167 -132 35 -68 40 -96 27 -160 -5 -27 -12 -66 -15 -85 -3 -19 -8
-42 -11 -51 -2 -10 -6 -30 -9 -45 -2 -16 -13 -76 -25 -134 -12 -58 -23 -116
-26 -130 -10 -59 -17 -76 -47 -114 -52 -66 -110 -117 -166 -146 -138 -70 -344
-56 -424 28 -64 68 -89 151 -90 297 -1 99 21 248 41 279 3 6 7 16 8 21 5 33
69 148 111 200 77 95 172 156 267 172 11 2 21 5 23 7 5 4 144 -1 169 -7z"/>
<path d="M12375 8009 c-104 -15 -183 -32 -243 -53 -23 -8 -43 -15 -45 -15 -11
2 -57 -23 -58 -31 -1 -5 -2 -13 -3 -17 -1 -5 -6 -30 -11 -58 -11 -65 -12 -69
-20 -94 -7 -24 5 -27 38 -9 12 7 27 13 32 15 6 1 44 14 85 28 140 47 325 64
431 39 19 -4 36 -8 39 -9 35 -8 92 -44 122 -76 27 -29 39 -52 44 -85 6 -45 0
-136 -11 -154 -3 -5 -87 -9 -188 -8 -246 0 -340 -10 -467 -49 -30 -9 -58 -21
-61 -26 -3 -5 -10 -9 -15 -8 -23 0 -101 -48 -154 -97 -64 -57 -124 -162 -137
-237 -11 -72 -6 -225 9 -225 4 0 8 -7 8 -15 0 -37 75 -134 135 -175 65 -44
129 -63 225 -64 101 -1 157 6 225 29 99 34 148 65 235 148 27 26 52 47 54 47
3 0 1 -13 -4 -30 -5 -16 -7 -30 -5 -30 3 0 0 -12 -6 -26 -5 -15 -12 -44 -14
-65 -6 -44 -14 -41 105 -41 109 0 117 1 117 15 0 10 7 46 29 147 3 14 7 39 9
55 3 17 7 39 9 50 14 61 48 234 51 255 2 14 6 36 9 50 3 14 8 37 11 53 3 15 7
39 10 55 3 15 10 47 15 72 17 74 21 110 24 224 3 86 0 118 -15 159 -22 59 -61
120 -98 153 -34 31 -133 78 -196 94 -58 14 -247 20 -320 9z m359 -724 c-6
-123 -96 -306 -188 -384 -15 -14 -33 -29 -40 -35 -44 -43 -160 -86 -241 -91
-99 -6 -177 16 -225 65 -47 48 -59 79 -62 160 -6 171 124 271 382 296 36 4 66
7 67 8 1 1 70 1 155 1 145 -1 153 -2 152 -20z"/>
<path d="M2245 7966 c8 -17 28 -67 45 -111 18 -44 40 -98 50 -120 49 -114 102
-245 99 -247 -2 -2 4 -16 13 -33 20 -38 51 -109 63 -145 4 -11 19 -47 36 -87
11 -23 19 -44 19 -47 0 -3 11 -30 25 -60 14 -30 25 -58 25 -61 0 -4 7 -23 16
-43 9 -21 20 -46 25 -57 5 -11 35 -83 67 -161 l58 -140 -31 -80 c-71 -180
-116 -245 -184 -264 -21 -6 -79 -11 -127 -11 l-89 -1 0 -91 0 -92 124 -2 c81
-1 140 4 170 13 25 7 46 13 46 13 0 -1 14 5 30 12 78 34 151 142 239 356 29
70 56 137 61 148 4 11 9 25 11 30 3 10 318 794 333 830 10 22 22 57 23 65 0 3
6 16 14 30 11 21 154 375 154 383 0 2 -54 3 -120 3 -66 1 -120 -2 -120 -6 0
-4 -8 -25 -17 -46 -9 -22 -17 -41 -18 -44 0 -6 -44 -115 -61 -155 -7 -16 -27
-66 -45 -110 -17 -44 -36 -91 -42 -105 -5 -14 -11 -30 -12 -35 -2 -6 -12 -32
-24 -57 -11 -26 -21 -52 -21 -58 0 -5 -4 -18 -10 -28 -5 -9 -16 -35 -26 -57
-9 -22 -20 -49 -25 -60 -4 -11 -27 -67 -49 -125 -22 -58 -45 -113 -50 -122 -6
-10 -10 -25 -10 -33 0 -46 -29 15 -139 293 -67 169 -126 316 -131 327 -5 11
-28 67 -50 125 -23 58 -47 119 -54 135 -13 31 -40 96 -42 105 -10 33 -17 50
-23 51 -3 1 -58 3 -123 4 l-116 2 13 -31z"/>
<path d="M13500 7965 c-4 -11 -15 -60 -24 -110 -9 -49 -18 -101 -21 -115 -3
-14 -7 -36 -10 -50 -4 -25 -23 -116 -30 -155 -6 -26 -55 -283 -61 -315 -2 -14
-7 -38 -11 -55 -64 -306 2 -490 202 -560 56 -20 202 -26 270 -12 118 24 223
79 317 166 66 61 71 64 64 36 -4 -16 -10 -41 -13 -55 -2 -14 -9 -45 -14 -69
-5 -24 -7 -46 -5 -49 3 -3 53 -5 111 -6 98 -1 106 0 110 19 2 11 9 43 14 70 6
28 13 62 15 78 3 15 7 35 10 45 3 9 7 33 10 52 3 19 8 46 11 60 2 14 14 75 26
135 11 61 27 139 34 175 8 36 16 80 19 98 4 17 8 47 12 65 3 17 9 50 15 72 5
22 12 53 14 69 2 16 16 88 31 160 14 72 28 145 31 161 2 17 8 47 13 67 5 25 4
38 -4 40 -6 2 -56 4 -111 4 l-100 -1 -12 -50 c-7 -27 -15 -68 -19 -90 -3 -22
-12 -69 -21 -105 -8 -36 -17 -78 -19 -95 -2 -16 -8 -50 -14 -75 -6 -25 -13
-59 -15 -75 -2 -17 -4 -30 -5 -30 -1 0 -3 -9 -5 -20 -2 -11 -7 -36 -11 -55 -4
-19 -8 -42 -9 -50 -8 -59 -39 -181 -60 -235 -63 -168 -204 -294 -360 -320
-203 -34 -330 49 -328 214 1 64 3 81 37 251 14 69 27 139 30 155 3 17 8 41 11
55 3 14 8 36 11 50 2 14 13 70 24 125 11 55 22 116 26 135 7 44 12 65 14 65 1
0 3 11 5 25 2 14 8 44 13 68 7 30 7 44 -2 49 -6 4 -55 8 -110 8 -90 1 -99 -1
-106 -20z"/>
</g>
</svg>
